<svg width="24" height="24" viewBox="0 0 24 24" fill="none" xmlns="http://www.w3.org/2000/svg">
<path fill-rule="evenodd" clip-rule="evenodd" d="M11.5333 1.25833C12.4333 1.69167 13.0417 2.05833 14.6333 3.65C16.925 5.94167 17.6583 8.35833 16.8333 10.9L16.2083 12.8333L15.3917 12.0167C14.0083 10.6333 13.1583 10.35 11.5583 10.7417L10.3833 11.025L10.775 12.2C11.1667 13.8 10.8833 14.65 9.5 16.0333L8.68333 16.85L10.6167 16.225C13.1583 15.4 15.575 16.1333 17.8667 18.425C20.375 20.9333 21 21.8417 21 21.8417L21 21.85H20.9917H4H3.99167L3.99167 21.8417C3.99167 21.8417 4.61667 20.9333 7.125 18.425C9.41667 16.1333 10.15 13.7167 9.325 11.175L9.325 10.7417L8.93333 10.6333C7.33333 10.2417 6.48333 10.525 5.1 11.9083L4.28333 12.725L3.65833 10.7917C2.83333 8.25 3.56667 5.83333 5.85833 3.54167C7.45 1.95 8.05833 1.58333 8.95833 1.15L9.375 0.95L10.4583 1.05C10.7 1.06667 11.1833 1.15833 11.5333 1.25833ZM15.9333 6.95833C16.2417 7.025 16.5333 7.04167 16.7667 7.00833C17.1667 6.94167 17.5 6.78333 17.65 6.575L17.7 6.5L17.6917 6.40833C17.6667 6.275 16.3583 4.3 15.525 4.525C14.7 4.75 12.925 3.44167 13.8833 4.325L14.4833 4.875L15.35 4.63333C15.825 4.5 16.0917 4.53333 15.9333 6.95833Z" fill="#F90"/>
<path d="M12 21H18.75C19.9875 21 21 19.9875 21 18.75V12C21 10.7625 19.9875 9.75 18.75 9.75H12C10.7625 9.75 9.75 10.7625 9.75 12V18.75C9.75 19.9875 10.7625 21 12 21Z" fill="#232F3E"/>
</svg>
