<svg width="24" height="24" viewBox="0 0 24 24" fill="none" xmlns="http://www.w3.org/2000/svg">
<path d="M13.983 11.078H16.102C16.2045 11.078 16.288 10.9945 16.288 10.893V9.006C16.288 8.9035 16.2045 8.82 16.102 8.82H13.983C13.8805 8.82 13.797 8.9035 13.797 9.006V10.893C13.797 10.995 13.88 11.078 13.983 11.078Z" fill="#2496ED"/>
<path d="M11.029 5.648H13.148C13.2505 5.648 13.334 5.5645 13.334 5.463V3.574C13.334 3.4715 13.2505 3.388 13.148 3.388H11.029C10.9265 3.388 10.843 3.4715 10.843 3.574V5.462C10.843 5.564 10.926 5.648 11.029 5.648Z" fill="#2496ED"/>
<path d="M11.029 8.364H13.148C13.2505 8.364 13.334 8.2805 13.334 8.179V6.29C13.334 6.1875 13.2505 6.104 13.148 6.104H11.029C10.9265 6.104 10.843 6.1875 10.843 6.29V8.178C10.843 8.28 10.926 8.364 11.029 8.364Z" fill="#2496ED"/>
<path d="M8.099 8.364H10.219C10.3205 8.364 10.403 8.2805 10.403 8.179V6.29C10.403 6.1875 10.3205 6.104 10.219 6.104H8.099C7.9965 6.104 7.914 6.1875 7.914 6.29V8.178C7.914 8.28 7.997 8.364 8.099 8.364Z" fill="#2496ED"/>
<path d="M5.135 8.364H7.254C7.3565 8.364 7.44 8.2805 7.44 8.179V6.29C7.44 6.1875 7.3565 6.104 7.254 6.104H5.135C5.0325 6.104 4.949 6.1875 4.949 6.29V8.178C4.949 8.28 5.033 8.364 5.135 8.364Z" fill="#2496ED"/>
<path d="M11.027 11.079H13.146C13.2485 11.079 13.332 10.9955 13.332 10.894V9.007C13.332 8.9045 13.2485 8.821 13.146 8.821H11.027C10.9245 8.821 10.841 8.9045 10.841 9.007V10.895C10.841 10.997 10.924 11.079 11.027 11.079Z" fill="#2496ED"/>
<path d="M8.097 11.079H10.217C10.3185 11.079 10.401 10.9955 10.401 10.894V9.007C10.401 8.9045 10.3185 8.821 10.217 8.821H8.097C7.9945 8.821 7.912 8.9045 7.912 9.007V10.895C7.912 10.997 7.995 11.079 8.097 11.079Z" fill="#2496ED"/>
<path d="M5.133 11.079H7.252C7.3545 11.079 7.438 10.9955 7.438 10.894V9.007C7.438 8.9045 7.3545 8.821 7.252 8.821H5.133C5.0305 8.821 4.947 8.9045 4.947 9.007V10.895C4.947 10.997 5.031 11.079 5.133 11.079Z" fill="#2496ED"/>
<path d="M2.204 11.079H4.324C4.4255 11.079 4.509 10.9955 4.509 10.894V9.007C4.509 8.9045 4.4255 8.821 4.324 8.821H2.204C2.1015 8.821 2.019 8.9045 2.019 9.007V10.895C2.019 10.997 2.102 11.079 2.204 11.079Z" fill="#2496ED"/>
<path d="M5.133 14.004H2.204C2.1015 14.004 2.019 14.19 2.019 14.19V14.801C2.019 18.749 4.031 21.337 6.985 21.337C8.479 21.337 9.805 20.765 10.853 19.851C10.739 20.009 10.428 20.144 9.467 20.268C4.687 21.234 3.637 18.206 3.972 17.655C4.307 17.105 5.544 17.276 5.544 17.276S6.456 17.722 7.616 17.018C8.776 16.314 8.152 15.464 8.152 15.464C8.36 15.526 8.706 15.578 9.068 15.606C10.768 15.606 11.993 14.756 11.993 14.756V14.003L11.992 13.82H9.028L6.909 13.824L6.197 13.82H5.133V14.004Z" fill="#2496ED"/>
</svg>
