<svg width="24" height="24" viewBox="0 0 24 24" fill="none" xmlns="http://www.w3.org/2000/svg">
<path d="M7 12H12V7H7C5.67392 7 4.40215 7.52678 3.46447 8.46447C2.52678 9.40215 2 10.6739 2 12C2 13.3261 2.52678 14.5979 3.46447 15.5355C4.40215 16.4732 5.67392 17 7 17H12V12H7Z" fill="#0ACF83"/>
<path d="M12 12H17C18.3261 12 19.5979 11.4732 20.5355 10.5355C21.4732 9.59785 22 8.32608 22 7C22 5.67392 21.4732 4.40215 20.5355 3.46447C19.5979 2.52678 18.3261 2 17 2H12V12Z" fill="#FF7262"/>
<path d="M7 2H12V7H7C5.67392 7 4.40215 6.47322 3.46447 5.53553C2.52678 4.59785 2 3.32608 2 2C2 1.3261 2.52678 0.67392 3.46447 0.46447C4.40215 -0.47322 5.67392 0 7 0H12V2H7Z" fill="#F24E1E"/>
<path d="M7 17H12V22H7C5.67392 22 4.40215 21.4732 3.46447 20.5355C2.52678 19.5979 2 18.3261 2 17C2 16.3261 2.52678 15.6739 3.46447 15.4645C4.40215 14.5268 5.67392 15 7 15H12V17H7Z" fill="#1ABCFE"/>
<path d="M12 17H17C18.3261 17 19.5979 16.4732 20.5355 15.5355C21.4732 14.5979 22 13.3261 22 12C22 10.6739 21.4732 9.40215 20.5355 8.46447C19.5979 7.52678 18.3261 7 17 7H12V17Z" fill="#A259FF"/>
</svg>
