<svg xmlns="http://www.w3.org/2000/svg" viewBox="0 0 256 256"><defs><linearGradient id="a" x1="15.823%" x2="57.372%" y1="18.948%" y2="83.567%"><stop offset="0%" stop-color="#387EB8"/><stop offset="100%" stop-color="#366994"/></linearGradient><linearGradient id="b" x1="42.701%" x2="85.1%" y1="21.018%" y2="81.258%"><stop offset="0%" stop-color="#FFE052"/><stop offset="100%" stop-color="#FFC331"/></linearGradient></defs><g fill="none" fill-rule="evenodd"><path fill="url(#a)" d="M128.428 12.872c-35.093 0-32.915 15.253-32.915 15.253V50.55h33.824V38.11c0-7.83 5.46-7.83 5.46-7.83 26.652 0 26.896 9.873 26.896 9.873v25.968h-37s-43.045.245-43.045 42.138c0 41.895 38.69 40.232 38.69 40.232h10.222v-13.84s-.532-15.88 15.65-15.88c16.185 0 27.644-.09 27.644-.09s15.39.88 15.39-44.576c0-45.457-41.226-61.225-60.816-61.225zm-21.734 8.783c4.136 0 7.488 3.336 7.488 7.45 0 4.114-3.352 7.45-7.488 7.45-4.135 0-7.487-3.336-7.487-7.45 0-4.114 3.352-7.45 7.487-7.45z"/><path fill="url(#b)" d="M127.425 242.067c35.093 0 32.915-15.252 32.915-15.252v-22.427h-33.823v12.44s0 7.83-5.462 7.83c-26.65 0-26.895-9.872-26.895-9.872v-25.97h37s43.045-.243 43.045-42.137c0-41.894-38.69-40.23-38.69-40.23h-10.224v13.84s.534 15.88-15.648 15.88c-16.184 0-27.643.088-27.643.088s-15.39-.88-15.39 44.575c0 45.458 41.225 61.226 60.815 61.226zm22.736-8.773c-4.136 0-7.49-3.337-7.49-7.452 0-4.114 3.354-7.45 7.49-7.45 4.135 0 7.488 3.336 7.488 7.45 0 4.115-3.353 7.452-7.488 7.452z"/></g></svg>
