<svg width="24" height="24" viewBox="0 0 24 24" fill="none" xmlns="http://www.w3.org/2000/svg">
<path d="M12.001 4.8C8.801 4.8 6.801 6.4 6.001 9.6C7.201 8 8.601 7.4 10.201 7.8C11.114 8.028 11.766 8.69 12.489 9.424C13.666 10.618 15.027 12 18.001 12C21.201 12 23.201 10.4 24.001 7.2C22.801 8.8 21.401 9.4 19.801 9C18.888 8.772 18.236 8.11 17.513 7.376C16.337 6.182 14.976 4.8 12.001 4.8ZM6.001 12C2.801 12 0.801 13.6 0.001 16.8C1.201 15.2 2.601 14.6 4.201 15C5.114 15.228 5.766 15.89 6.489 16.624C7.666 17.818 9.027 19.2 12.001 19.2C15.201 19.2 17.201 17.6 18.001 14.4C16.801 16 15.401 15.4 13.801 15C12.888 14.772 12.236 14.11 11.513 13.376C10.337 12.182 8.976 12 6.001 12Z" fill="#06B6D4"/>
</svg>
